<svg width="38" height="38" viewBox="0 0 38 38" fill="none" xmlns="http://www.w3.org/2000/svg">
<path d="M29.0938 0H8.90625C3.98746 0 0 3.98746 0 8.90625V29.0938C0 34.0125 3.98746 38 8.90625 38H29.0938C34.0125 38 38 34.0125 38 29.0938V8.90625C38 3.98746 34.0125 0 29.0938 0Z" fill="url(#paint0_linear_44_155)"/>
<g filter="url(#filter0_d_44_155)">
<path d="M19.5893 29.1171C23.9943 29.1171 26.6488 26.9601 26.6488 23.4027C26.6488 20.7134 24.7549 18.7667 21.9425 18.4584V18.3464C24.0087 18.0102 25.6301 16.0914 25.6301 13.9485C25.6301 10.8952 23.2196 8.90625 19.5462 8.90625H11.2812V29.1171H19.5893ZM14.4954 11.4693H18.7714C21.0959 11.4693 22.416 12.5059 22.416 14.3827C22.416 16.3856 20.8807 17.506 18.0971 17.506H14.4954V11.4693ZM14.4954 26.554V19.9012H18.7426C21.7847 19.9012 23.363 21.0216 23.363 23.2066C23.363 25.3914 21.8277 26.554 18.9292 26.554H14.4954Z" fill="url(#paint1_linear_44_155)"/>
<path d="M19.5893 29.1171C23.9943 29.1171 26.6488 26.9601 26.6488 23.4027C26.6488 20.7134 24.7549 18.7667 21.9425 18.4584V18.3464C24.0087 18.0102 25.6301 16.0914 25.6301 13.9485C25.6301 10.8952 23.2196 8.90625 19.5462 8.90625H11.2812V29.1171H19.5893ZM14.4954 11.4693H18.7714C21.0959 11.4693 22.416 12.5059 22.416 14.3827C22.416 16.3856 20.8807 17.506 18.0971 17.506H14.4954V11.4693ZM14.4954 26.554V19.9012H18.7426C21.7847 19.9012 23.363 21.0216 23.363 23.2066C23.363 25.3914 21.8277 26.554 18.9292 26.554H14.4954Z" stroke="white" stroke-width="0.125"/>
</g>
<defs>
<filter id="filter0_d_44_155" x="10.2188" y="8.09375" width="17.4926" height="22.3358" filterUnits="userSpaceOnUse" color-interpolation-filters="sRGB">
<feFlood flood-opacity="0" result="BackgroundImageFix"/>
<feColorMatrix in="SourceAlpha" type="matrix" values="0 0 0 0 0 0 0 0 0 0 0 0 0 0 0 0 0 0 127 0" result="hardAlpha"/>
<feOffset dy="0.25"/>
<feGaussianBlur stdDeviation="0.5"/>
<feColorMatrix type="matrix" values="0 0 0 0 0 0 0 0 0 0 0 0 0 0 0 0 0 0 0.15 0"/>
<feBlend mode="normal" in2="BackgroundImageFix" result="effect1_dropShadow_44_155"/>
<feBlend mode="normal" in="SourceGraphic" in2="effect1_dropShadow_44_155" result="shape"/>
</filter>
<linearGradient id="paint0_linear_44_155" x1="0" y1="0" x2="38" y2="38" gradientUnits="userSpaceOnUse">
<stop stop-color="#9013FE"/>
<stop offset="1" stop-color="#6B11F4"/>
</linearGradient>
<linearGradient id="paint1_linear_44_155" x1="12.7349" y1="10.2365" x2="22.0491" y2="25.989" gradientUnits="userSpaceOnUse">
<stop stop-color="white"/>
<stop offset="1" stop-color="#F1E5FC"/>
</linearGradient>
</defs>
</svg>
