<svg width="33" height="33" viewBox="0 0 33 33" fill="none" xmlns="http://www.w3.org/2000/svg">
<path d="M15.8508 21.0202C15.2391 21.9817 14.6522 22.9224 13.337 23.8362C12.6335 24.3293 11.0142 25.2928 8.7126 25.2928C4.32141 25.2928 0.7771 22.1003 0.7771 16.4876C0.7771 11.5822 4.11116 7.70718 8.80622 7.70718C10.7084 7.70718 12.3983 8.36475 13.6429 9.35118C14.7938 10.2668 15.3328 11.1827 15.8031 12.0047L12.5168 13.6467C12.2817 13.1076 11.9987 12.5437 11.2723 11.9339C10.4733 11.2992 9.67604 11.1119 8.99354 11.1119C6.31722 11.1119 4.90829 13.6009 4.90829 16.3709C4.90829 20.0108 6.76454 21.8174 8.99354 21.8174C11.1537 21.8174 12.0235 20.3147 12.5857 19.3532L15.8508 21.0202ZM27.363 8.22337H31.7771L26.0248 24.7996H21.8L16.1185 8.22337H20.5325L23.9602 20.0109L27.363 8.22337Z" fill="white"/>
</svg>
