<svg width="42" height="41" viewBox="0 0 42 41" fill="none" xmlns="http://www.w3.org/2000/svg">
<path d="M16.0437 23.0475C17.4506 23.0475 18.5911 21.9069 18.5911 20.5C18.5911 19.0931 17.4506 17.9526 16.0437 17.9526C14.6367 17.9526 13.4962 19.0931 13.4962 20.5C13.4962 21.9069 14.6367 23.0475 16.0437 23.0475Z" fill="white"/>
<path d="M26.2334 23.0475C27.6403 23.0475 28.7809 21.9069 28.7809 20.5C28.7809 19.0931 27.6403 17.9526 26.2334 17.9526C24.8265 17.9526 23.686 19.0931 23.686 20.5C23.686 21.9069 24.8265 23.0475 26.2334 23.0475Z" fill="white"/>
<path d="M27.0826 29.8406L28.7809 33.2372C28.7809 33.2372 35.8628 30.9785 38.1215 27.2932C38.1215 25.5949 39.0216 13.4521 33.0266 9.46111C30.4792 7.76281 26.2334 6.91367 26.2334 6.91367L24.5351 10.3103H21.1386H17.742L16.0946 6.91367C16.0946 6.91367 11.8489 7.76281 9.30145 9.46111C3.30648 13.4521 4.20657 25.5949 4.20657 27.2932C6.4653 30.9785 13.5472 33.2372 13.5472 33.2372L15.2455 29.8406" stroke="white" stroke-width="2" stroke-linecap="round" stroke-linejoin="round"/>
<path d="M10.0997 27.2932C18.5911 31.5389 23.686 31.5389 32.1775 27.2932" stroke="white" stroke-width="2" stroke-linecap="round" stroke-linejoin="round"/>
</svg>
