<svg width="67" height="67" viewBox="0 0 67 67" fill="none" xmlns="http://www.w3.org/2000/svg">
<g clip-path="url(#clip0_68_155)">
<path d="M13.4565 48.2211C11.5491 48.2211 9.81549 46.6634 9.81549 44.7643C9.81549 42.8653 11.3732 41.2971 13.4565 41.2971C15.5503 41.2971 17.1227 42.8569 17.1227 44.7643C17.1227 46.6634 15.3786 48.2211 13.4691 48.2211H13.4565ZM58.156 29.346C57.7728 26.5759 56.0622 24.3189 53.8031 22.5957L52.9216 21.8985L52.2118 22.759C50.8383 24.3189 50.2835 27.0889 50.4552 29.1596C50.6206 30.732 51.1189 32.2898 52.0046 33.5C51.2843 33.8706 50.4133 34.1972 49.7349 34.5573C48.1437 35.0787 46.5943 35.2545 45.047 35.2545H0.272179L0.0963036 36.2784C-0.241216 39.6558 0.300457 43.063 1.66871 46.1693L2.35546 47.3815V47.5428C6.54296 54.4793 13.9904 57.599 22.1142 57.599C37.7315 57.599 50.5326 50.8488 56.6045 36.2909C60.5847 36.4647 64.6006 35.4283 66.4849 31.6114L66.9874 30.7509L66.1583 30.2253C63.8908 28.8414 60.792 28.6571 58.2 29.3543L58.1434 29.3648L58.156 29.346ZM35.801 26.5759H29.0194V33.3346H35.801V26.5759ZM35.801 18.0816H29.0194V24.8402H35.801V18.0816ZM35.801 9.41138H29.0194V16.1721H35.801V9.41138ZM44.0881 26.5759H37.3483V33.3346H44.109V26.5759H44.0881ZM18.9756 26.5759H12.2359V33.3346H18.9966V26.5759H18.9756ZM27.426 26.5759H20.7323V33.3346H27.4721V26.5759H27.426ZM10.6006 26.5759H3.90274V33.3346H10.6865V26.5759H10.6006ZM27.426 18.0816H20.7323V24.8402H27.4721V18.09L27.426 18.0816ZM18.9296 18.0816H12.2463V24.8402H18.9861V18.09L18.9421 18.0816H18.9296Z" fill="#2396ED"/>
</g>
<defs>
<clipPath id="clip0_68_155">
<rect width="67" height="67" fill="white"/>
</clipPath>
</defs>
</svg>
