<svg width="41" height="41" viewBox="0 0 41 41" fill="none" xmlns="http://www.w3.org/2000/svg">
<path d="M25.4744 35.7846C25.4744 35.7846 25.4744 31.9295 25.4744 30.6898C25.4744 29.6198 25.7291 27.3611 24.6252 26.444C26.9858 26.2232 28.837 25.459 30.5692 23.8966C32.3015 22.3342 33.1167 19.9735 33.1167 16.2543C33.1167 13.7068 32.6921 12.0085 31.4184 10.3102C31.9109 8.98557 31.9958 6.91366 31.4184 5.21536C28.769 5.21536 26.3744 7.03254 25.4744 7.7628C24.812 7.59297 23.2156 6.91366 20.3795 6.91366C17.5433 6.91366 15.9469 7.59297 15.2846 7.7628C14.3845 7.03254 11.9899 5.21536 9.34057 5.21536C8.76315 6.91366 8.84806 8.98557 9.34057 10.3102C8.06685 12.0085 7.64227 13.7068 7.64227 16.2543C7.64227 19.9735 8.45745 22.3342 10.1897 23.8966C11.922 25.459 13.7731 26.2232 16.1337 26.444C15.0298 27.3611 15.2846 29.6198 15.2846 30.6898C15.2846 31.9295 15.2846 35.7846 15.2846 35.7846" stroke="white" stroke-width="2" stroke-linecap="round" stroke-linejoin="round"/>
<path d="M15.2846 32.3881C12.8968 32.3881 10.4547 31.4319 9.0213 30.3705C7.59134 29.3107 7.16677 27.5598 5.09485 26.444" stroke="white" stroke-width="2" stroke-linecap="round" stroke-linejoin="round"/>
</svg>
