<svg width="67" height="67" viewBox="0 0 67 67" fill="none" xmlns="http://www.w3.org/2000/svg">
<path d="M51.2969 0H15.7031C7.03053 0 0 7.03053 0 15.7031V51.2969C0 59.9695 7.03053 67 15.7031 67H51.2969C59.9695 67 67 59.9695 67 51.2969V15.7031C67 7.03053 59.9695 0 51.2969 0Z" fill="#F0DB4F"/>
<path d="M17.6168 55.99L22.7439 52.8871C23.7332 54.6409 24.633 56.1248 26.7914 56.1248C28.8602 56.1248 30.1647 55.3156 30.1647 52.1676V30.7595H36.4611V52.2566C36.4611 58.7778 32.6384 61.7463 27.0612 61.7463C22.0244 61.7463 19.1008 59.1377 17.6165 55.9895M39.881 55.3153L45.0075 52.3471C46.3572 54.5511 48.1112 56.1701 51.2142 56.1701C53.8232 56.1701 55.4867 54.8657 55.4867 53.0666C55.4867 50.908 53.7777 50.1432 50.8993 48.8843L49.3256 48.2094C44.783 46.2758 41.7695 43.847 41.7695 38.72C41.7695 33.9975 45.3676 30.3994 50.9896 30.3994C54.9923 30.3994 57.8707 31.7939 59.9393 35.4367L55.0371 38.5849C53.9575 36.6511 52.7887 35.8866 50.9896 35.8866C49.1455 35.8866 47.9762 37.056 47.9762 38.5849C47.9762 40.4738 49.1455 41.2385 51.8439 42.4081L53.4178 43.0826C58.7697 45.3765 61.7832 47.7147 61.7832 52.9766C61.7832 58.6438 57.3308 61.7468 51.3492 61.7468C45.5027 61.7468 41.7248 58.9584 39.881 55.3153Z" fill="#323330"/>
</svg>
