<svg width="67" height="67" viewBox="0 0 67 67" fill="none" xmlns="http://www.w3.org/2000/svg">
<path fill-rule="evenodd" clip-rule="evenodd" d="M15.2482 11.2782C14.6186 11.2686 13.9902 11.338 13.3778 11.4847V11.5908H13.4811C13.844 12.3362 14.4861 12.8192 14.9355 13.4612L15.9741 15.6415L16.0801 15.5382C16.7222 15.086 17.0181 14.3602 17.0153 13.2519C16.7557 12.9811 16.7166 12.6405 16.4933 12.3167C16.1974 11.8867 15.6223 11.6411 15.2482 11.2782ZM65.5457 64.5906C66.0342 64.9507 66.3636 65.5091 67.0001 65.7352V65.6291C66.6651 65.2048 66.5814 64.6185 66.2743 64.1747C65.8221 63.728 65.3717 63.2776 64.9231 62.8235C63.565 61.0703 61.9533 59.5291 60.141 58.2507C58.7228 57.2318 55.5376 55.8527 54.9457 54.2L54.8396 54.094C55.8474 53.9823 57.0283 53.6166 57.9579 53.3681C59.5213 52.9494 60.9171 53.0555 62.5307 52.6423L64.7138 52.017V51.5982C63.8986 50.7607 63.3179 49.6552 62.4274 48.8987C60.0991 46.9166 57.5615 44.9345 54.9457 43.2874C53.494 42.3689 51.7018 41.7771 50.1636 40.9982C49.6471 40.7386 48.7398 40.6018 48.3993 40.1691C47.5897 39.1362 47.1514 37.8325 46.5288 36.6349C45.2251 34.1224 43.941 31.3782 42.788 28.7344C41.998 26.9338 41.4843 25.1583 40.4988 23.5419C35.7809 15.7811 30.7001 11.0995 22.8332 6.49603C21.1582 5.51895 19.1426 5.13091 17.0153 4.62561L13.5844 4.41903C12.8865 4.12591 12.1606 3.27445 11.5074 2.85849C8.89997 1.21141 2.21113 -2.3703 0.284881 2.33924C-0.935077 5.31236 2.10505 8.21291 3.1938 9.71761C3.95592 10.7757 4.93301 11.9593 5.48017 13.1486C5.83751 13.9302 5.89892 14.7119 6.20601 15.5382C6.96255 17.5762 7.61859 19.7872 8.59567 21.6687C9.09259 22.6207 9.63697 23.6229 10.2595 24.4744C10.6448 24.9964 11.298 25.2281 11.4013 26.0349C10.7592 26.931 10.7257 28.3241 10.3656 29.4631C8.74084 34.5858 9.35222 40.9508 11.7168 44.7419C12.4398 45.9032 14.1455 48.399 16.4933 47.4414C18.548 46.6039 18.0901 44.0132 18.6764 41.7269C18.8076 41.2076 18.7294 40.8252 18.989 40.479V40.5823L20.8595 44.3231C22.2441 46.5537 24.7008 48.8847 26.7834 50.4564C27.861 51.2716 28.7096 52.6814 30.1083 53.1587V53.0527H30.005C29.7314 52.6339 29.3071 52.458 28.9665 52.1175C28.1023 51.278 27.3026 50.3747 26.574 49.4151C24.6813 46.8468 23.0091 44.0328 21.4848 41.1043C20.7562 39.7029 20.1225 38.1619 19.5083 36.7382C19.271 36.1882 19.2738 35.3591 18.7825 35.0743C18.1097 36.1184 17.1186 36.9615 16.5994 38.1926C15.7675 40.1607 15.6586 42.5616 15.3515 45.0517C15.17 45.116 15.251 45.0713 15.1421 45.155C13.696 44.8061 13.188 43.3153 12.6492 42.0367C11.2896 38.8068 11.0356 33.6003 12.2332 29.879C12.5431 28.9159 13.9445 25.8842 13.3778 24.9936C13.1042 24.1059 12.2137 23.595 11.714 22.9166C11.0633 22.0041 10.5059 21.0287 10.0501 20.0049C8.93905 17.4868 8.41701 14.6561 7.24451 12.1073C6.68617 10.8901 5.73701 9.65899 4.95813 8.57582C4.0983 7.37541 3.13238 6.49324 2.46517 5.04157C2.22788 4.52511 1.90405 3.70157 2.2558 3.17116C2.36747 2.81382 2.52659 2.66307 2.88113 2.54861C3.48413 2.08241 5.16192 2.70216 5.79005 2.96178C7.45667 3.65411 8.84692 4.31295 10.2567 5.25095C10.9351 5.69761 11.6218 6.56861 12.4398 6.8087H13.375C14.8406 7.1437 16.4793 6.91199 17.8445 7.32795C20.2593 8.06216 22.4228 9.20395 24.3909 10.4462C30.3818 14.2289 35.2784 19.6113 38.6284 26.0349C39.1672 27.0678 39.4017 28.0561 39.8763 29.1532C40.8338 31.3642 42.0398 33.6394 42.9918 35.8029C43.941 37.9609 44.8706 40.1384 46.2134 41.9334C46.9197 42.877 49.6499 43.3851 50.8922 43.91C51.7604 44.2757 53.1842 44.6609 54.0077 45.155C55.5822 46.1042 57.1065 47.2348 58.5805 48.2733C59.3175 48.7954 61.5871 49.9344 61.6988 50.8696C58.0417 50.7747 55.25 51.1125 52.8659 52.1202C52.1876 52.405 51.1072 52.4134 50.9955 53.262C51.3668 53.6529 51.4254 54.2391 51.7213 54.7165C52.2908 55.6377 53.254 56.8745 54.111 57.5221C55.0518 58.2312 56.0177 58.9877 57.0227 59.6019C58.8094 60.6907 60.8082 61.316 62.5279 62.4075C63.5468 63.0524 64.5574 63.862 65.5457 64.5906Z" fill="white"/>
</svg>
