<svg width="38" height="38" viewBox="0 0 38 38" fill="none" xmlns="http://www.w3.org/2000/svg">
<path d="M29.0938 0H8.90625C3.98746 0 0 3.98746 0 8.90625V29.0938C0 34.0125 3.98746 38 8.90625 38H29.0938C34.0125 38 38 34.0125 38 29.0938V8.90625C38 3.98746 34.0125 0 29.0938 0Z" fill="#CD6799"/>
<mask id="mask0_44_148" style="mask-type:luminance" maskUnits="userSpaceOnUse" x="4" y="7" width="30" height="24">
<path d="M4.15625 7.86719H33.8438V30.1193H4.15625V7.86719Z" fill="white"/>
</mask>
<g mask="url(#mask0_44_148)">
<path d="M29.7034 20.657C28.6682 20.6623 27.7687 20.9117 27.0154 21.2801C26.739 20.7328 26.4626 20.2451 26.4137 19.8874C26.3596 19.4701 26.2945 19.2154 26.3596 18.7168C26.4246 18.2182 26.7173 17.5083 26.7118 17.4542C26.7063 17.4 26.6468 17.1453 26.0507 17.1398C25.4545 17.1343 24.9398 17.2536 24.8801 17.4108C24.8204 17.5679 24.7067 17.9256 24.6309 18.2942C24.5278 18.8361 23.4385 20.7709 22.8153 21.7842C22.6148 21.3886 22.4414 21.0418 22.4034 20.7654C22.3492 20.3481 22.2842 20.0934 22.3492 19.5948C22.4142 19.0962 22.707 18.3862 22.7015 18.332C22.696 18.2778 22.6364 18.0231 22.0403 18.0178C21.4442 18.0124 20.9293 18.1315 20.8697 18.2887C20.8101 18.4459 20.7451 18.8144 20.6204 19.172C20.4958 19.5298 19.0489 22.7598 18.6695 23.5943C18.5162 23.932 18.3554 24.2663 18.1872 24.5968C18.1872 24.5968 18.1817 24.6132 18.1655 24.6402C18.1126 24.7438 18.0584 24.8468 18.0028 24.9491V24.9546C17.9216 25.1009 17.8348 25.2363 17.7914 25.2363C17.7589 25.2363 17.6994 24.8462 17.8023 24.3151C18.0192 23.1932 18.5339 21.4482 18.5286 21.3886C18.5286 21.3561 18.6261 21.0526 18.1925 20.8954C17.7698 20.7382 17.6181 20.9984 17.5801 20.9984C17.5422 20.9984 17.5151 21.0906 17.5151 21.0906C17.5151 21.0906 17.9866 19.1287 16.6155 19.1287C15.7592 19.1287 14.5778 20.0662 13.9926 20.9117C13.3272 21.2738 12.6624 21.6369 11.9981 22.001C11.6785 22.1798 11.3479 22.3587 11.0389 22.5267C11.0172 22.505 10.9955 22.4779 10.9739 22.4562C9.31552 20.684 6.24821 19.4322 6.37824 17.0531C6.42707 16.1859 6.72514 13.9098 12.2691 11.1459C16.8322 8.89689 20.4633 9.52003 21.092 10.902C21.9915 12.8747 19.1464 16.5382 14.4316 17.0693C12.6322 17.2698 11.6893 16.5762 11.4509 16.3161C11.2016 16.045 11.1636 16.0289 11.0714 16.083C10.9197 16.1642 11.0172 16.4081 11.0714 16.549C11.2124 16.9176 11.7922 17.5679 12.7731 17.8876C13.6402 18.1695 15.7484 18.3267 18.3009 17.3403C21.157 16.2347 23.3898 13.1618 22.734 10.5877C22.0783 7.97554 17.7428 7.11386 13.6402 8.57166C11.2014 9.43884 8.55685 10.8045 6.65463 12.582C4.39467 14.6957 4.03708 16.5328 4.18344 17.3023C4.70906 20.0337 8.47551 21.8113 9.98215 23.1282C9.9063 23.1715 9.83579 23.2095 9.77627 23.242C9.02295 23.616 6.15068 25.1171 5.43521 26.7051C4.62237 28.5043 5.56539 29.7941 6.18853 29.9674C8.12327 30.504 10.1122 29.5394 11.1799 27.946C12.2476 26.3527 12.1174 24.2826 11.6242 23.3342C11.6188 23.3223 11.6115 23.3113 11.6025 23.3017C11.7977 23.1879 11.9981 23.0687 12.1933 22.9548C12.5519 22.7429 12.9151 22.5387 13.2825 22.3424C13.0983 22.8465 12.9628 23.4479 12.8978 24.3151C12.8166 25.334 13.2338 26.6562 13.7811 27.1765C14.025 27.4041 14.3122 27.4096 14.4966 27.4096C15.1361 27.4096 15.4233 26.8785 15.743 26.2498C16.1331 25.4802 16.4855 24.586 16.4855 24.586C16.4855 24.586 16.0464 27.0031 17.2387 27.0031C17.6723 27.0031 18.1112 26.4395 18.3064 26.1523V26.1576C18.3064 26.1576 18.3172 26.1415 18.3389 26.1035C18.3822 26.033 18.4092 25.9896 18.4092 25.9896V25.9788C18.5828 25.6754 18.9729 24.9871 19.5528 23.8435C20.3006 22.3695 21.0214 20.527 21.0214 20.527C21.0214 20.527 21.0865 20.9767 21.3087 21.7246C21.4387 22.1636 21.7098 22.6459 21.9265 23.112C21.7531 23.3559 21.6447 23.4913 21.6447 23.4913L21.6501 23.4968C21.5092 23.681 21.3575 23.8815 21.1895 24.0766C20.5987 24.7812 19.8942 25.5887 19.7967 25.8217C19.6828 26.0981 19.71 26.2985 19.9267 26.4612C20.0839 26.5804 20.3657 26.5966 20.6529 26.5804C21.184 26.5424 21.558 26.4124 21.7423 26.331C22.0295 26.2282 22.3655 26.071 22.6798 25.8379C23.2597 25.4098 23.612 24.7974 23.5795 23.9899C23.5631 23.5454 23.4168 23.1012 23.2381 22.6838C23.2922 22.6079 23.3409 22.5321 23.3951 22.4562C24.3111 21.1176 25.0209 19.649 25.0209 19.649C25.0209 19.649 25.086 20.0987 25.3082 20.8467C25.4165 21.226 25.6387 21.6379 25.8339 22.039C24.9723 22.7381 24.4412 23.5509 24.2515 24.082C23.91 25.0684 24.1756 25.5127 24.6795 25.6157C24.9072 25.6645 25.2323 25.5562 25.4709 25.4532C25.7743 25.3556 26.132 25.1876 26.4734 24.9382C27.0532 24.5101 27.6115 23.914 27.579 23.1065C27.5626 22.7381 27.4651 22.3749 27.3296 22.0226C28.0612 21.7192 29.0043 21.5512 30.2074 21.6921C32.7871 21.9956 33.2965 23.6051 33.1988 24.2826C33.1013 24.9599 32.5593 25.3285 32.3805 25.4423C32.2018 25.5562 32.1421 25.594 32.1584 25.6754C32.1801 25.7946 32.2668 25.7891 32.4185 25.7674C32.6299 25.7296 33.7733 25.2201 33.8221 23.9737C33.9034 22.3804 32.386 20.6407 29.7034 20.657ZM9.80328 27.3662C8.9471 28.2983 7.75485 28.6507 7.23992 28.3526C6.68714 28.0327 6.90385 26.6563 7.95539 25.6699C8.59471 25.0684 9.41853 24.5101 9.96582 24.1687C10.0905 24.0929 10.2747 23.9845 10.4969 23.849C10.5349 23.8273 10.5566 23.8165 10.5566 23.8165L10.6866 23.7351C11.0714 25.1443 10.7028 26.3854 9.80328 27.3662ZM16.0357 23.1282C15.7377 23.8545 15.1145 25.7132 14.7351 25.6104C14.41 25.5235 14.2095 24.1146 14.6701 22.7218C14.9032 22.0226 15.3963 21.1881 15.6835 20.8629C16.1496 20.3426 16.6644 20.1692 16.7891 20.3806C16.9462 20.657 16.2201 22.6729 16.0357 23.1282ZM21.1788 25.5887C21.0541 25.6537 20.9349 25.697 20.8807 25.6645C20.8427 25.6429 20.9349 25.5562 20.9349 25.5562C20.9349 25.5562 21.5799 24.8624 21.8346 24.5481C21.9808 24.3638 22.1543 24.1471 22.3385 23.9032V23.9737C22.3385 24.8029 21.5365 25.361 21.1788 25.5887ZM25.1458 24.6835C25.0536 24.6185 25.0699 24.4018 25.3788 23.7243C25.498 23.4588 25.7799 23.0145 26.2622 22.5862C26.3164 22.7598 26.3544 22.9276 26.3489 23.0848C26.3435 24.1309 25.5956 24.521 25.1458 24.6835Z" fill="white"/>
</g>
</svg>
