<svg width="67" height="67" viewBox="0 0 67 67" fill="none" xmlns="http://www.w3.org/2000/svg">
<path d="M33.5 1.20392C15.6508 1.20392 1.20392 15.6508 1.20392 33.5C1.20392 51.3492 15.6508 65.7961 33.5 65.7961C51.3492 65.7961 65.7961 51.3492 65.7961 33.5C65.7961 15.6508 51.3492 1.20392 33.5 1.20392ZM50.9305 19.8906C49.4125 19.943 48.418 19.0531 48.3656 17.6922C48.3656 17.1688 48.4703 16.75 48.8367 16.2266C49.1508 15.5984 49.2555 15.4938 49.2555 15.232C49.2031 14.3945 47.9469 14.3422 47.5805 14.3422C42.7125 14.4992 41.4563 21.0422 40.4094 26.3813L39.8859 29.2078C42.6602 29.6266 44.6492 29.1031 45.7484 28.4227C47.3188 27.4281 45.3297 26.3813 45.5391 25.2297C45.8008 24.0781 46.8477 23.5024 47.6852 23.45C48.8891 23.3977 49.7266 24.6539 49.6742 25.9102C49.6219 27.9516 46.9 30.8305 41.4039 30.6734C40.7234 30.6734 40.1477 30.6211 39.5719 30.5688L38.525 36.2742C37.5828 40.5664 36.3789 46.4813 31.982 51.6109C28.2133 56.1125 24.3922 56.793 22.6649 56.8453C19.4719 56.95 17.3258 55.2227 17.2735 52.9719C17.2211 50.7734 19.1578 49.5695 20.4141 49.5172C22.1414 49.4649 23.293 50.7211 23.3453 52.1344C23.3977 53.3383 22.7695 53.7047 22.3508 53.9664C22.0891 54.1758 21.6703 54.4375 21.6703 54.9086C21.6703 55.118 21.932 55.5891 22.6125 55.5891C23.9734 55.5367 24.8633 54.8563 25.4914 54.4375C28.632 51.8203 29.836 47.2664 31.4063 39.0484L31.7203 37.0594C32.2438 34.3899 32.8719 31.3539 33.7617 28.3703C31.5633 26.6953 30.2547 24.6539 27.2711 23.8688C25.2297 23.293 24.0258 23.7641 23.136 24.8633C22.0891 26.1719 22.4555 27.8469 23.45 28.8414L25.0727 30.6734C27.1141 33.0289 28.2133 34.8086 27.7945 37.2688C27.2188 41.0899 22.5602 44.0734 17.0641 42.3984C12.3531 40.9328 11.5156 37.6352 12.0914 35.8031C12.5625 34.1805 13.8711 33.8664 15.1274 34.2852C16.4883 34.7039 17.0117 36.3266 16.593 37.5828C16.5406 37.7399 16.4883 37.9492 16.3313 38.2109C16.1742 38.5774 15.9125 38.8391 15.7555 39.2578C15.4414 40.2524 16.8024 40.9328 17.7445 41.2469C19.8383 41.875 21.8797 40.7758 22.4031 39.1008C22.8742 37.5305 21.8797 36.4313 21.5133 36.0125L19.5242 33.8664C18.6344 32.8719 16.593 30.0453 17.5875 26.8524C17.9539 25.6484 18.7391 24.3399 19.8906 23.5024C22.2985 21.6703 24.968 21.4086 27.4805 22.1414C30.7258 23.0836 32.2961 25.2297 34.3375 26.9047C35.4891 23.607 37.0594 20.3094 39.4149 17.5875C41.561 15.075 44.3875 13.2953 47.6852 13.1383C50.9828 13.0336 53.443 14.4992 53.5477 16.8547C53.4953 17.9016 52.9195 19.8383 50.9305 19.8906Z" fill="white"/>
</svg>
